<svg width="24" height="24" viewBox="0 0 24 24" fill="none" xmlns="http://www.w3.org/2000/svg">
<path d="M7.16748 19.4648H16.0518C17.5898 19.4648 18.3516 18.7031 18.3516 17.1943V8.25146C18.3516 6.74268 17.5898 5.98096 16.0518 5.98096H7.16748C5.63672 5.98096 4.86768 6.73535 4.86768 8.25146V17.1943C4.86768 18.7104 5.63672 19.4648 7.16748 19.4648ZM7.18213 18.2856C6.44971 18.2856 6.04688 17.8975 6.04688 17.1357V8.31006C6.04688 7.54834 6.44971 7.16016 7.18213 7.16016H16.0371C16.7622 7.16016 17.1724 7.54834 17.1724 8.31006V17.1357C17.1724 17.8975 16.7622 18.2856 16.0371 18.2856H7.18213ZM10.251 15.5757L14.4185 13.1074C14.7261 12.9316 14.7188 12.5068 14.4185 12.3237L10.251 9.85547C9.93604 9.67236 9.51855 9.81152 9.51855 10.1704V15.2607C9.51855 15.6123 9.90674 15.7808 10.251 15.5757Z" fill="white"/>
</svg>
