<svg width="24" height="24" viewBox="0 0 24 24" fill="none" xmlns="http://www.w3.org/2000/svg">
<path d="M5.27002 19.5527H17.8164C19.3984 19.5527 20.2188 18.7397 20.2188 17.1797V8.25879C20.2188 6.69873 19.3984 5.88574 17.8164 5.88574H5.27002C3.68799 5.88574 2.86768 6.69141 2.86768 8.25879V17.1797C2.86768 18.7397 3.68799 19.5527 5.27002 19.5527ZM5.35791 18.1172C4.67676 18.1172 4.30322 17.7656 4.30322 17.0552V8.3833C4.30322 7.67285 4.67676 7.31396 5.35791 7.31396H17.7285C18.4023 7.31396 18.7832 7.67285 18.7832 8.3833V17.0552C18.7832 17.7656 18.4023 18.1172 17.7285 18.1172H5.35791ZM10.1699 15.5977L14.3813 13.1221C14.6963 12.939 14.689 12.4995 14.3813 12.3164L10.1699 9.8335C9.85498 9.65039 9.43018 9.8042 9.43018 10.1631V15.2681C9.43018 15.627 9.82568 15.8027 10.1699 15.5977Z" fill="white"/>
</svg>
