<svg width="24" height="24" viewBox="0 0 24 24" fill="none" xmlns="http://www.w3.org/2000/svg">
<path d="M17.9712 19.6479C17.9712 19.2671 17.7148 18.9961 17.3413 18.9961H12.4927C12.6465 18.9814 12.7856 18.9009 12.9102 18.7764L17.7734 13.9058C17.9126 13.7593 17.9712 13.6055 17.9712 13.4297C17.9712 13.0708 17.7075 12.7925 17.3413 12.7925C17.1655 12.7925 16.9971 12.8511 16.8799 12.9683L15.21 14.6089L13.02 17.0186L13.0713 15.4512V5.79785C13.0713 5.42432 12.8003 5.15332 12.4194 5.15332C12.0386 5.15332 11.7676 5.42432 11.7676 5.79785V15.4512L11.8188 17.0112L9.62891 14.6089L7.95898 12.9683C7.84912 12.8511 7.67334 12.7925 7.49756 12.7925C7.13135 12.7925 6.86768 13.0708 6.86768 13.4297C6.86768 13.6055 6.93359 13.7593 7.07275 13.9058L11.9287 18.7764C12.0532 18.9009 12.1997 18.9814 12.3535 18.9961H7.51221C7.13135 18.9961 6.86768 19.2671 6.86768 19.6479C6.86768 20.0288 7.13135 20.3071 7.51221 20.3071H17.3413C17.7148 20.3071 17.9712 20.0288 17.9712 19.6479Z" fill="white"/>
</svg>
