<svg width="24" height="24" viewBox="0 0 24 24" fill="none" xmlns="http://www.w3.org/2000/svg">
<path d="M4.83105 11.2983C4.30371 11.2983 4.17188 11.6572 4.45752 12.0674L6.09814 14.3965C6.33984 14.7334 6.69141 14.7261 6.92578 14.3965L8.56641 12.0601C8.84473 11.6572 8.71289 11.2983 8.19287 11.2983H7.13086C7.76807 8.52979 10.229 6.49365 13.2026 6.49365C16.6597 6.49365 19.4282 9.25488 19.4282 12.7119C19.4282 16.1689 16.6597 18.9521 13.2026 18.9375C11.1152 18.9302 9.28418 17.9194 8.16357 16.3594C7.93652 16.0591 7.59229 15.9639 7.28467 16.147C6.9917 16.3301 6.91113 16.7329 7.16016 17.0552C8.55176 18.9229 10.7344 20.1826 13.2026 20.1826C17.2822 20.1826 20.6733 16.7915 20.6733 12.7119C20.6733 8.625 17.2822 5.24121 13.2026 5.24121C9.59912 5.24121 6.5376 7.87061 5.86377 11.2983H4.83105ZM12.9243 8.41992C12.6021 8.41992 12.3384 8.67627 12.3384 8.99854V13.0854C12.3384 13.2539 12.3896 13.4004 12.5142 13.5615L14.3232 15.9492C14.5649 16.2642 14.9019 16.3154 15.2021 16.1104C15.4731 15.9199 15.4951 15.5757 15.2754 15.2754L13.5029 12.8877V8.99854C13.5029 8.67627 13.2466 8.41992 12.9243 8.41992Z" fill="white"/>
</svg>
