<svg width="24" height="24" viewBox="0 0 24 24" fill="none" xmlns="http://www.w3.org/2000/svg">
<path d="M4.9917 18.022H19.6108C20.9878 18.022 21.7349 17.2676 21.7349 15.8979V7.4165C21.7349 6.03955 20.9878 5.29248 19.6108 5.29248H4.9917C3.61475 5.29248 2.86768 6.03955 2.86768 7.4165V15.8979C2.86768 17.2676 3.61475 18.022 4.9917 18.022ZM5.12354 16.4473C4.66943 16.4473 4.44238 16.2275 4.44238 15.7661V7.54102C4.44238 7.07959 4.66943 6.86719 5.12354 6.86719H19.4863C19.9404 6.86719 20.1675 7.07959 20.1675 7.54102V15.7661C20.1675 16.2275 19.9404 16.4473 19.4863 16.4473H5.12354ZM14.4546 10.4414C14.8354 10.3462 14.9453 10.251 14.9453 9.81885V8.3833C14.9453 8.07568 14.8135 7.94385 14.4106 8.04639L12.2793 8.57373C11.8984 8.66895 11.8105 8.75684 11.8105 9.20361V12.3457C11.8105 12.6533 11.7886 12.6973 11.4443 12.7925L10.7778 12.9609C10.0674 13.1514 9.53271 13.5762 9.53271 14.2793C9.53271 14.9238 10.0234 15.3853 10.7705 15.3853C11.8325 15.3853 12.5576 14.6235 12.5576 13.5469V11.1958C12.5576 10.9468 12.6089 10.8882 12.7554 10.8589L14.4546 10.4414ZM8.50732 20.6367H16.0952C16.498 20.6367 16.813 20.3071 16.813 19.9263C16.813 19.5381 16.498 19.2012 16.0952 19.2012H8.50732C8.11182 19.2012 7.78955 19.5381 7.78955 19.9263C7.78955 20.3071 8.11182 20.6367 8.50732 20.6367Z" fill="white"/>
</svg>
