<svg width="24" height="24" viewBox="0 0 24 24" fill="none" xmlns="http://www.w3.org/2000/svg">
<path d="M5.16748 16.7402H6.48584V17.8608C6.48584 19.377 7.24756 20.1313 8.78564 20.1313H18.7905C20.314 20.1313 21.0903 19.3696 21.0903 17.8608V10.9541C21.0903 9.44531 20.314 8.68359 18.7905 8.68359H17.3916V7.56299C17.3916 6.0542 16.6152 5.29248 15.0918 5.29248H5.16748C3.62939 5.29248 2.86768 6.0542 2.86768 7.56299V14.4697C2.86768 15.9858 3.62939 16.7402 5.16748 16.7402ZM5.18213 15.561C4.44971 15.561 4.04688 15.1729 4.04688 14.4111V7.62891C4.04688 6.86719 4.44971 6.47168 5.18213 6.47168H15.0698C15.7949 6.47168 16.2124 6.86719 16.2124 7.62891V8.68359H8.78564C7.24756 8.68359 6.48584 9.44531 6.48584 10.9541V15.561H5.18213ZM8.80029 18.9521C8.06787 18.9521 7.66504 18.564 7.66504 17.8022V11.02C7.66504 10.2583 8.06787 9.86279 8.80029 9.86279H18.7686C19.4937 9.86279 19.9111 10.2583 19.9111 11.02V17.8022C19.9111 18.564 19.4937 18.9521 18.7686 18.9521H8.80029ZM11.7959 16.9746C11.7959 17.3115 12.1401 17.436 12.4111 17.2749L16.7251 14.7407C16.9888 14.5796 16.9814 14.228 16.7178 14.0815L12.4111 11.54C12.1401 11.3862 11.7959 11.5034 11.7959 11.8403V16.9746Z" fill="white"/>
</svg>
