<svg width="24" height="24" viewBox="0 0 24 24" fill="none" xmlns="http://www.w3.org/2000/svg">
<path d="M12.2324 16.6157C12.4155 16.6157 12.5986 16.5425 12.7231 16.4033L18.3921 10.5952C18.5166 10.4707 18.5898 10.3096 18.5898 10.1265C18.5898 9.74561 18.3042 9.45264 17.9233 9.45264C17.7402 9.45264 17.5718 9.52588 17.4473 9.64307L12.2324 14.9751L7.01025 9.64307C6.89307 9.52588 6.72461 9.45264 6.53418 9.45264C6.15332 9.45264 5.86768 9.74561 5.86768 10.1265C5.86768 10.3096 5.94092 10.4707 6.06543 10.6025L11.7344 16.4033C11.8735 16.5425 12.042 16.6157 12.2324 16.6157Z" fill="#EBEBF5" fill-opacity="0.6"/>
</svg>
