<svg width="24" height="24" viewBox="0 0 24 24" fill="none" xmlns="http://www.w3.org/2000/svg">
<path d="M11.7817 20.1826C15.8687 20.1826 19.2524 16.7915 19.2524 12.7119C19.2524 8.625 15.8613 5.24121 11.7744 5.24121C7.69482 5.24121 4.31104 8.625 4.31104 12.7119C4.31104 16.7915 7.70215 20.1826 11.7817 20.1826ZM11.7817 18.9375C8.32471 18.9375 5.56348 16.1689 5.56348 12.7119C5.56348 9.25488 8.31738 6.48633 11.7744 6.48633C15.2314 6.48633 18.0073 9.25488 18.0073 12.7119C18.0073 16.1689 15.2388 18.9375 11.7817 18.9375ZM7.95117 13.5029H11.7744C12.0601 13.5029 12.2871 13.2832 12.2871 12.9902V8.05371C12.2871 7.76807 12.0601 7.54834 11.7744 7.54834C11.4888 7.54834 11.269 7.76807 11.269 8.05371V12.4849H7.95117C7.6582 12.4849 7.43848 12.7046 7.43848 12.9902C7.43848 13.2832 7.6582 13.5029 7.95117 13.5029Z" fill="white"/>
</svg>
